<svg xmlns="http://www.w3.org/2000/svg" xmlns:xlink="http://www.w3.org/1999/xlink" width="159.839" height="90.818" viewBox="0 0 159.839 90.818">
  <defs>
    <clipPath id="clip-path">
      <rect id="Rectangle_17771" data-name="Rectangle 17771" width="159.839" height="90.818" fill="#fddcb9"/>
    </clipPath>
    <linearGradient id="linear-gradient" x1="0.5" x2="0.5" y2="1" gradientUnits="objectBoundingBox">
      <stop offset="0" stop-color="#fdb262"/>
      <stop offset="1" stop-color="#df4c38"/>
    </linearGradient>
  </defs>
  <g id="Group_26970" data-name="Group 26970" clip-path="url(#clip-path)">
    <path id="Path_60343" data-name="Path 60343" d="M256.639,362.8a1.592,1.592,0,0,0,1.5,1.953h52.767a1.592,1.592,0,0,0,1.5-1.953,14.332,14.332,0,0,1-2.769-6.709c-.628-4.672.765-7.2.765-7.2a1.959,1.959,0,0,0-1.859-1.65H260.5a1.958,1.958,0,0,0-1.859,1.65s1.392,2.527.764,7.2a14.331,14.331,0,0,1-2.769,6.709" transform="translate(-205.637 -278.987)" fill="#fdbc77"/>
    <path id="Path_60344" data-name="Path 60344" d="M269.326,331.529a1.052,1.052,0,0,0,1.064,1.237H319a1.052,1.052,0,0,0,1.063-1.237,1.464,1.464,0,0,0-1.4-1.22H270.727a1.464,1.464,0,0,0-1.4,1.22" transform="translate(-215.81 -265.379)" fill="#df4c38"/>
    <path id="Path_60345" data-name="Path 60345" d="M300.6,441.18h-58.49a1.916,1.916,0,0,0-1.924,1.9v.285a1.916,1.916,0,0,0,1.924,1.9H300.6a1.916,1.916,0,0,0,1.924-1.9v-.285a1.916,1.916,0,0,0-1.924-1.9" transform="translate(-192.47 -354.456)" fill="#fdbc77"/>
    <path id="Path_60346" data-name="Path 60346" d="M266.612,35.9a32.213,32.213,0,0,0-32.346,32.005,31.819,31.819,0,0,0,11.65,24.577h4.341a29.751,29.751,0,1,1,32.708,0h4.342a31.82,31.82,0,0,0,11.65-24.577A32.213,32.213,0,0,0,266.612,35.9" transform="translate(-187.726 -28.845)" fill="#fddcb9"/>
    <path id="Path_60347" data-name="Path 60347" d="M318.655,140.671h0a3.635,3.635,0,0,1-3.48,3.7c0,.01,0,.019,0,.029a3.643,3.643,0,0,1,3.482,3.785,3.643,3.643,0,0,1,3.482-3.785c0-.01,0-.02,0-.029a3.635,3.635,0,0,1-3.48-3.7" transform="translate(-295.518 -89.02)" fill="#fc8507"/>
    <path id="Path_60348" data-name="Path 60348" d="M191.52,167.988h0a2.276,2.276,0,0,1-2.179,2.315c0,.006,0,.012,0,.018a2.281,2.281,0,0,1,2.18,2.37,2.281,2.281,0,0,1,2.18-2.37c0-.006,0-.012,0-.018a2.276,2.276,0,0,1-2.179-2.315" transform="translate(-151.725 -134.966)" fill="#df4c38" opacity="0.59"/>
    <path id="Path_60349" data-name="Path 60349" d="M584.83,36.864h0a2.276,2.276,0,0,1-2.179,2.315c0,.006,0,.012,0,.018a2.187,2.187,0,1,0,4.359,0v-.018a2.276,2.276,0,0,1-2.179-2.315" transform="translate(-466.898 -29.618)" fill="#df4c38" opacity="0.59"/>
    <path id="Path_60350" data-name="Path 60350" d="M575.283,92.658h0A3.325,3.325,0,0,1,572.1,96.04c0,.009,0,.018,0,.027a3.332,3.332,0,0,1,3.185,3.462,3.332,3.332,0,0,1,3.184-3.462c0-.009,0-.018,0-.027a3.324,3.324,0,0,1-3.183-3.382" transform="translate(-458.442 -74.444)" fill="#fc8507" opacity="0.59"/>
    <path id="Path_60351" data-name="Path 60351" d="M512.97,19.458h0a5.457,5.457,0,0,1-5.225,5.551c0,.015,0,.029,0,.044a5.469,5.469,0,0,1,5.227,5.683,5.47,5.47,0,0,1,5.227-5.683c0-.015,0-.029,0-.044a5.457,5.457,0,0,1-5.225-5.551" transform="translate(-406.871 -15.633)" fill="#fc8507" opacity="0.59"/>
    <path id="Path_60352" data-name="Path 60352" d="M163.041,221.83h0a5.457,5.457,0,0,1-5.225,5.551c0,.015,0,.029,0,.044a5.47,5.47,0,0,1,5.227,5.683,5.47,5.47,0,0,1,5.227-5.683c0-.015,0-.029,0-.044a5.457,5.457,0,0,1-5.225-5.551" transform="translate(-126.46 -178.224)" fill="#fc8507" opacity="0.59"/>
    <path id="Path_60353" data-name="Path 60353" d="M296.725,73.354a24.719,24.719,0,0,0-21.683,24.422,24.433,24.433,0,0,0,7.761,17.866h2.886a24.517,24.517,0,0,1,9.475-41.878q.771-.229,1.562-.409" transform="translate(-220.401 -58.934)" fill="#fdb262"/>
    <path id="Path_60354" data-name="Path 60354" d="M36.508,13.428a.6.6,0,0,0-.249-.913,6.488,6.488,0,0,0-6.2.67,13.072,13.072,0,0,0-3.966,5.43c-1.043,2.8-2.016,4.867-2.016,4.867-1.24-.2-.255-3.712-.024-5.343.59-4.164,5.077-9.6,6.323-10.239,2-1.028,5.857-1.644,7.806-2.739A5.488,5.488,0,0,0,41.149.283c-1.4-.7-3.018.074-4.485.495-2.607.748-5.593.319-8.225,1.01-2.381.625-4.245,2.1-6.208,3.365S15.6,9.288,14.487,10.107c-2.407,1.764-3.276,5.667-3.751,8.4a123.145,123.145,0,0,1-4.69,17.53A18.34,18.34,0,0,1,2.5,41.8C1.236,43.282-.935,44.623.441,46.048c3.08,3.19,9,5.8,10.25,5.592,1.336-.223,1.822-1.447,2.437-2.335a21.279,21.279,0,0,1,2.758-3.294,10.49,10.49,0,0,1,3.19-2.547c1.251-.583,2-1,3.269-1.56a11.274,11.274,0,0,0,6.123-7.659c1.361-5.62,1.157-5.284,2.419-10.876.594-2.63,2.37-4.726,3.163-6.28a20.694,20.694,0,0,1,2.459-3.66" transform="translate(0 -0.001)" fill="#fdd3a7"/>
    <path id="Path_60355" data-name="Path 60355" d="M636.094,41.8a18.333,18.333,0,0,1-3.549-5.764,123.184,123.184,0,0,1-4.69-17.53c-.474-2.73-1.344-6.633-3.751-8.4-1.116-.819-5.772-3.685-7.743-4.954s-3.828-2.74-6.208-3.365c-2.632-.691-5.618-.262-8.225-1.01-1.467-.421-3.089-1.194-4.485-.495a5.489,5.489,0,0,0,2.971,4.878c1.949,1.1,5.8,1.712,7.806,2.739,1.246.639,5.733,6.075,6.323,10.239.231,1.63,1.216,5.143-.024,5.343,0,0-.973-2.063-2.016-4.867a13.072,13.072,0,0,0-3.966-5.43,6.488,6.488,0,0,0-6.2-.67.6.6,0,0,0-.249.913,20.733,20.733,0,0,1,2.459,3.66c.793,1.554,2.569,3.65,3.163,6.28,1.262,5.592,1.058,5.257,2.419,10.877a11.272,11.272,0,0,0,6.123,7.659c1.266.562,2.018.977,3.269,1.56a10.489,10.489,0,0,1,3.19,2.547,21.275,21.275,0,0,1,2.758,3.294c.615.888,1.1,2.112,2.437,2.335,1.249.209,7.17-2.4,10.25-5.592,1.376-1.425-.795-2.766-2.057-4.25" transform="translate(-478.752 0)" fill="#fdd3a7"/>
    <path id="Shape_21" data-name="Shape 21" d="M22.7,28.674V23.892h5.973v4.782Zm-22.7,0V23.892H5.974v4.782Zm16.728,0V25.088c0-.039,0-.076,0-.115a2.389,2.389,0,0,0-2.5-2.272,2.434,2.434,0,0,0-2.273,2.454v3.516H7.17V13.142a1.194,1.194,0,0,1,.448-.932l5.525-4.421V.6a.6.6,0,0,1,.6-.6h5.973a.6.6,0,0,1,.6.6V4.181a.6.6,0,0,1-.6.6H15.533v3.01l5.526,4.42a1.2,1.2,0,0,1,.447.933v15.53ZM11.949,15.531a2.389,2.389,0,1,0,2.389-2.39A2.389,2.389,0,0,0,11.949,15.531ZM0,22.7V18.068a1.341,1.341,0,0,1,1.34-1.34H5.974V22.7Zm22.7,0V16.726h4.779a1.2,1.2,0,0,1,1.194,1.2V22.7Z" transform="translate(65.483 23.155)" opacity="0.82" fill="url(#linear-gradient)"/>
  </g>
</svg>
