<svg xmlns="http://www.w3.org/2000/svg" xmlns:xlink="http://www.w3.org/1999/xlink" width="318" height="268" viewBox="0 0 318 268">
  <defs>
    <filter id="Rectangle_7779" x="0" y="0" width="318" height="268" filterUnits="userSpaceOnUse">
      <feOffset input="SourceAlpha"/>
      <feGaussianBlur stdDeviation="3" result="blur"/>
      <feFlood flood-opacity="0.161"/>
      <feComposite operator="in" in2="blur"/>
      <feComposite in="SourceGraphic"/>
    </filter>
    <clipPath id="clip-path">
      <rect id="Rectangle_7778" data-name="Rectangle 7778" width="300" height="250" rx="8" fill="#e6f9fd" opacity="0.51"/>
    </clipPath>
  </defs>
  <g id="Group_28321" data-name="Group 28321" transform="translate(9 9)">
    <g transform="matrix(1, 0, 0, 1, -9, -9)" filter="url(#Rectangle_7779)">
      <rect id="Rectangle_7779-2" data-name="Rectangle 7779" width="300" height="250" rx="8" transform="translate(9 9)" fill="#fef5ec" opacity="0.6"/>
    </g>
    <g id="Mask_Group_179" data-name="Mask Group 179" opacity="0.3" clip-path="url(#clip-path)">
      <g id="Group_25019" data-name="Group 25019" transform="translate(-159.651 -137.606)" opacity="0.45">
        <path id="Path_59968" data-name="Path 59968" d="M97.344,280.175q5.1-1.555,10.328-3.454c18.026-6.559,38.894-19.287,52.751-35.416,8.911-10.371,14.012-20.984,17.849-30.894s6.7-19.582,12.28-29.925a92.149,92.149,0,0,1,26.048-30.2c23.221-16.864,44.842-8.784,70.436-23.931,19.84-11.743,33.749-27.241,45.478-42.853,14.334-19.079,22.772-37.96,22.916-52.7C355.75-2.026,312.367-16.4,271.893-9.634,177.268,6.194,63.538,55.958,13.176,157.259.828,182.1-13.425,232.709-9,250.261-.416,284.267,43.124,296.695,97.344,280.175Z" transform="translate(443.145 155.261) rotate(120)" fill="#fc7d47" opacity="0.3"/>
        <path id="Path_59967" data-name="Path 59967" d="M89.5,257.606q4.694-1.43,9.5-3.176c16.574-6.031,35.761-17.733,48.5-32.563,8.193-9.535,12.883-19.294,16.411-28.405s6.163-18,11.291-27.514a84.728,84.728,0,0,1,23.95-27.771c21.351-15.505,41.23-8.076,64.762-22,18.242-10.8,31.03-25.047,41.815-39.4,13.18-17.542,20.938-34.9,21.07-48.45.294-30.184-39.595-43.4-76.808-37.179C162.988,5.695,58.42,51.45,12.115,144.591.762,167.429-12.344,213.964-8.273,230.1-.383,261.368,39.65,272.795,89.5,257.606Z" transform="translate(402.673 212.124) rotate(120)" fill="#fc7d47" opacity="0.4"/>
        <path id="Path_59966" data-name="Path 59966" d="M89.5,257.606q4.694-1.43,9.5-3.176c16.574-6.031,35.761-17.733,48.5-32.563,8.193-9.535,12.883-19.294,16.411-28.405s6.163-18,11.291-27.514a84.728,84.728,0,0,1,23.95-27.771c21.351-15.505,41.23-8.076,64.762-22,18.242-10.8,31.03-25.047,41.815-39.4,13.18-17.542,20.938-34.9,21.07-48.45.294-30.184-39.595-43.4-76.808-37.179C162.988,5.695,58.42,51.45,12.115,144.591.762,167.429-12.344,213.964-8.273,230.1-.383,261.368,39.65,272.795,89.5,257.606Z" transform="translate(378.661 262.792) rotate(120)" fill="#fc7d47" opacity="0.5"/>
      </g>
    </g>
  </g>
</svg>
